<svg width="254" height="80" viewBox="0 0 254 80" fill="none" xmlns="http://www.w3.org/2000/svg">
<path fill-rule="evenodd" clip-rule="evenodd" d="M34.0127 -244.474L111.145 -137.518L114.649 -140.246L37.5172 -247.202L34.0127 -244.474ZM19.7666 -214.908L96.8987 -107.951L100.403 -110.679L23.2711 -217.636L19.7666 -214.908ZM28.0742 -187.265L105.206 -80.3082L108.711 -83.0363L31.5788 -189.993L28.0742 -187.265ZM20.627 -181.467L97.759 -74.5109L101.264 -77.239L24.1315 -184.195L20.627 -181.467ZM78.6545 46.9564L1.52247 -59.9999L5.02699 -62.728L82.159 44.2284L78.6545 46.9564ZM101.041 -69.9588L178.173 36.9975L181.678 34.2694L104.546 -72.6869L101.041 -69.9588ZM81.9355 51.5085L159.068 158.465L162.572 155.737L85.4401 48.7804L81.9355 51.5085ZM239.483 269.972L162.351 163.016L165.855 160.288L242.987 267.244L239.483 269.972ZM181.455 41.5486L258.587 148.505L262.092 145.777L184.96 38.8205L181.455 41.5486ZM166.516 152.668L89.3838 45.7112L92.8883 42.9832L170.02 149.94L166.516 152.668ZM108.488 -75.7571L185.62 31.1992L189.125 28.4711L111.993 -78.4852L108.488 -75.7571ZM246.93 264.175L169.798 157.219L173.302 154.491L250.434 261.447L246.93 264.175ZM188.902 35.7513L266.034 142.708L269.539 139.98L192.407 33.0232L188.902 35.7513ZM86.1008 41.1592L8.96875 -65.7972L12.4733 -68.5252L89.6053 38.4311L86.1008 41.1592ZM158.208 125.024L81.0762 18.068L84.5807 15.3399L161.713 122.296L158.208 125.024ZM100.181 -103.4L177.313 3.55599L180.817 0.827911L103.685 -106.128L100.181 -103.4ZM238.622 236.532L161.49 129.575L164.995 126.847L242.127 233.804L238.622 236.532ZM180.596 8.10707L257.728 115.063L261.232 112.335L184.1 5.379L180.596 8.10707ZM77.7932 13.5159L0.661139 -93.4404L4.16567 -96.1685L81.2977 10.7879L77.7932 13.5159ZM172.453 95.458L95.3213 -11.4983L98.8258 -14.2264L175.958 92.73L172.453 95.458ZM114.426 -132.966L191.558 -26.0093L195.062 -28.7374L117.93 -135.694L114.426 -132.966ZM252.867 206.965L175.735 100.009L179.24 97.281L256.372 204.237L252.867 206.965ZM194.841 -21.4582L271.973 85.4981L275.477 82.77L198.345 -24.1863L194.841 -21.4582ZM92.0393 -16.0494L14.9072 -123.006L18.4118 -125.734L95.5438 -18.7774L92.0393 -16.0494ZM204.189 123.34L127.057 16.3833L130.561 13.6552L207.693 120.612L204.189 123.34ZM146.162 -105.084L223.294 1.87231L226.799 -0.855764L149.667 -107.812L146.162 -105.084ZM284.603 234.847L207.471 127.891L210.975 125.163L288.107 232.119L284.603 234.847ZM226.576 6.42437L303.708 113.381L307.213 110.653L230.081 3.6963L226.576 6.42437ZM123.775 11.8333L46.6426 -95.1231L50.1471 -97.8512L127.279 9.10518L123.775 11.8333ZM65.748 -216.591L142.88 -109.635L146.385 -112.363L69.2526 -219.32L65.748 -216.591ZM187.348 83.8635L110.216 -23.0929L113.72 -25.8209L190.852 81.1354L187.348 83.8635ZM129.32 -144.56L206.452 -37.6039L209.957 -40.3319L132.825 -147.288L129.32 -144.56ZM267.762 195.371L190.63 88.4146L194.134 85.6865L271.266 192.643L267.762 195.371ZM209.735 -33.0528L286.867 73.9036L290.372 71.1755L213.24 -35.7809L209.735 -33.0528ZM106.933 -27.6439L29.8008 -134.6L33.3053 -137.328L110.437 -30.372L106.933 -27.6439ZM48.9062 -256.068L126.038 -149.111L129.543 -151.839L52.4108 -258.796L48.9062 -256.068ZM219.522 111.405L142.39 4.44821L145.894 1.72013L223.026 108.676L219.522 111.405ZM161.494 -117.018L238.626 -10.0618L242.131 -12.7899L164.999 -119.746L161.494 -117.018ZM299.936 222.913L222.804 115.957L226.308 113.229L303.44 220.185L299.936 222.913ZM241.908 -5.51071L319.04 101.446L322.545 98.7176L245.413 -8.23878L241.908 -5.51071ZM139.107 -0.102854L61.9746 -107.059L65.4791 -109.787L142.611 -2.83093L139.107 -0.102854ZM81.0801 -228.527L158.212 -121.57L161.717 -124.298L84.5846 -231.255L81.0801 -228.527ZM189.295 134.935L112.163 27.9789L115.668 25.2508L192.8 132.207L189.295 134.935ZM131.268 -93.4885L208.4 13.4679L211.904 10.7398L134.772 -96.2166L131.268 -93.4885ZM269.709 246.443L192.577 139.486L196.082 136.758L273.214 243.715L269.709 246.443ZM211.682 18.0179L288.814 124.974L292.318 122.246L215.186 15.2899L211.682 18.0179ZM108.881 23.4268L31.749 -83.5295L35.2536 -86.2576L112.386 20.6987L108.881 23.4268ZM50.8535 -204.996L127.986 -98.0395L131.49 -100.768L54.358 -207.724L50.8535 -204.996ZM196.289 160.758L119.157 53.8012L122.662 51.0731L199.794 158.029L196.289 160.758ZM138.263 -67.6662L215.395 39.2902L218.899 36.5621L141.767 -70.3942L138.263 -67.6662ZM276.703 272.265L199.571 165.309L203.076 162.581L280.208 269.537L276.703 272.265ZM218.677 43.8422L295.809 150.799L299.313 148.071L222.181 41.1142L218.677 43.8422ZM115.875 49.2501L38.7432 -57.7062L42.2477 -60.4343L119.38 46.522L115.875 49.2501ZM57.8486 -179.174L134.981 -72.2172L138.485 -74.9453L61.3532 -181.902L57.8486 -179.174Z" fill="url(#paint0_linear_1_113)"/>
<defs>
<linearGradient id="paint0_linear_1_113" x1="75.9997" y1="-62.8563" x2="334.401" y2="210.425" gradientUnits="userSpaceOnUse">
<stop stop-color="white" stop-opacity="0"/>
<stop offset="1" stop-color="#41C0D2"/>
</linearGradient>
</defs>
</svg>
