<svg width="29" height="44" viewBox="0 0 29 44" fill="none" xmlns="http://www.w3.org/2000/svg">
<path d="M11.5004 14.5V20.5H17.5004V14.5H11.5004Z" fill="#F0F0F0"/>
<path d="M7.50029 22H21.4997C22.0301 22 22.5388 21.7893 22.9139 21.4142C23.2889 21.0392 23.4997 20.5305 23.4997 20.0001V11.0004C23.5004 10.8688 23.4752 10.7384 23.4254 10.6165C23.3757 10.4947 23.3023 10.3839 23.2097 10.2905L15.21 2.29078C15.0226 2.10454 14.7692 2 14.505 2C14.2408 2 13.9874 2.10454 13.8 2.29078L5.80035 10.2905C5.70587 10.3831 5.6307 10.4935 5.57921 10.6154C5.52771 10.7373 5.50092 10.8681 5.50037 11.0004V20.0001C5.50037 20.5305 5.71107 21.0392 6.08613 21.4142C6.46119 21.7893 6.96987 22 7.50029 22ZM12.5001 20.0001V15.0003H16.4999V20.0001H12.5001ZM7.50029 11.4104L14.5 4.4107L21.4997 11.4104V20.0001H18.4999V15.0003C18.4999 14.4699 18.2891 13.9612 17.9141 13.5861C17.539 13.2111 17.0303 13.0004 16.4999 13.0004H12.5001C11.9697 13.0004 11.461 13.2111 11.0859 13.5861C10.7109 13.9612 10.5002 14.4699 10.5002 15.0003V20.0001H7.50029V11.4104Z" fill="#898989"/>
<path d="M5.478 35.49H1.68V39H0.666V31.08H1.68V34.566H5.478V31.08H6.492V39H5.478V35.49ZM10.3514 39.144C9.84341 39.144 9.39141 39.03 8.99541 38.802C8.60341 38.574 8.29541 38.266 8.07141 37.878C7.84741 37.486 7.73541 37.044 7.73541 36.552C7.73541 36.06 7.84741 35.616 8.07141 35.22C8.29541 34.824 8.60341 34.51 8.99541 34.278C9.39141 34.046 9.84341 33.93 10.3514 33.93C10.8554 33.93 11.3014 34.046 11.6894 34.278C12.0814 34.51 12.3874 34.824 12.6074 35.22C12.8274 35.616 12.9374 36.06 12.9374 36.552C12.9374 37.044 12.8274 37.486 12.6074 37.878C12.3874 38.266 12.0814 38.574 11.6894 38.802C11.3014 39.03 10.8554 39.144 10.3514 39.144ZM10.3514 38.25C10.6714 38.25 10.9494 38.176 11.1854 38.028C11.4254 37.88 11.6114 37.678 11.7434 37.422C11.8754 37.162 11.9414 36.87 11.9414 36.546C11.9414 36.222 11.8754 35.93 11.7434 35.67C11.6114 35.41 11.4254 35.204 11.1854 35.052C10.9494 34.9 10.6714 34.824 10.3514 34.824C10.0274 34.824 9.74541 34.9 9.50541 35.052C9.26541 35.204 9.07741 35.41 8.94141 35.67C8.80941 35.93 8.74341 36.222 8.74341 36.546C8.74341 36.87 8.80941 37.162 8.94141 37.422C9.07741 37.678 9.26541 37.88 9.50541 38.028C9.74541 38.176 10.0274 38.25 10.3514 38.25ZM20.0048 33.93C20.3688 33.93 20.6808 34.01 20.9408 34.17C21.2008 34.326 21.3988 34.566 21.5348 34.89C21.6748 35.214 21.7448 35.628 21.7448 36.132V39H20.7128V36.342C20.7128 35.81 20.6388 35.41 20.4908 35.142C20.3428 34.874 20.0728 34.74 19.6808 34.74C19.4728 34.74 19.2728 34.798 19.0808 34.914C18.8928 35.026 18.7368 35.2 18.6128 35.436C18.4928 35.672 18.4328 35.974 18.4328 36.342V39H17.4608V36.342C17.4608 35.81 17.3688 35.41 17.1848 35.142C17.0008 34.874 16.7428 34.74 16.4108 34.74C16.1988 34.74 15.9988 34.796 15.8108 34.908C15.6268 35.016 15.4768 35.188 15.3608 35.424C15.2448 35.66 15.1868 35.966 15.1868 36.342V39H14.1488V34.074H15.1868V34.83C15.2308 34.706 15.3248 34.574 15.4688 34.434C15.6168 34.294 15.8048 34.176 16.0328 34.08C16.2648 33.98 16.5228 33.93 16.8068 33.93C17.1028 33.93 17.3508 33.99 17.5508 34.11C17.7508 34.23 17.9088 34.378 18.0248 34.554C18.1408 34.726 18.2208 34.892 18.2648 35.052C18.3208 34.88 18.4288 34.708 18.5888 34.536C18.7488 34.36 18.9508 34.216 19.1948 34.104C19.4388 33.988 19.7088 33.93 20.0048 33.93ZM23.8426 36.75C23.8466 37.046 23.9106 37.316 24.0346 37.56C24.1586 37.804 24.3426 37.998 24.5866 38.142C24.8346 38.286 25.1386 38.358 25.4986 38.358C25.8026 38.358 26.0606 38.314 26.2726 38.226C26.4886 38.134 26.6646 38.026 26.8006 37.902C26.9366 37.774 27.0346 37.66 27.0946 37.56L27.6046 38.19C27.4726 38.382 27.3106 38.55 27.1186 38.694C26.9306 38.838 26.7006 38.948 26.4286 39.024C26.1566 39.104 25.8246 39.144 25.4326 39.144C24.9046 39.144 24.4466 39.032 24.0586 38.808C23.6746 38.58 23.3786 38.266 23.1706 37.866C22.9626 37.462 22.8586 37 22.8586 36.48C22.8586 36 22.9566 35.568 23.1526 35.184C23.3486 34.796 23.6326 34.49 24.0046 34.266C24.3806 34.042 24.8326 33.93 25.3606 33.93C25.8446 33.93 26.2646 34.032 26.6206 34.236C26.9806 34.436 27.2586 34.72 27.4546 35.088C27.6546 35.456 27.7546 35.896 27.7546 36.408C27.7546 36.44 27.7526 36.498 27.7486 36.582C27.7446 36.662 27.7406 36.718 27.7366 36.75H23.8426ZM26.7586 35.964C26.7546 35.8 26.7066 35.62 26.6146 35.424C26.5266 35.228 26.3826 35.06 26.1826 34.92C25.9826 34.78 25.7126 34.71 25.3726 34.71C25.0206 34.71 24.7366 34.778 24.5206 34.914C24.3086 35.05 24.1526 35.216 24.0526 35.412C23.9526 35.604 23.8946 35.788 23.8786 35.964H26.7586Z" fill="#898989"/>
</svg>
