<svg width="188" height="255" viewBox="0 0 188 255" fill="none" xmlns="http://www.w3.org/2000/svg">
<path d="M182.56 73.0601V149.15L75.6399 87.4301V11.3301L182.56 73.0601Z" fill="#D7C7ED"/>
<path d="M127.668 61.6534V78.5C127.668 80.2868 127.579 82.0441 127.401 83.7719C127.224 85.4801 126.997 87.2963 126.72 89.2205L122.102 86.5671C121.826 84.6429 121.599 82.8267 121.421 81.1185C121.243 79.3906 121.155 77.6333 121.155 75.8466V59L127.668 61.6534ZM120 97.5822C120 96.9735 120.109 96.3943 120.326 95.8445C120.562 95.2948 120.878 94.8235 121.273 94.4308C121.688 94.0381 122.171 93.724 122.724 93.4884C123.276 93.2527 123.868 93.1349 124.5 93.1349C125.112 93.1349 125.694 93.2527 126.247 93.4884C126.799 93.724 127.273 94.0381 127.668 94.4308C128.082 94.8235 128.408 95.2948 128.645 95.8445C128.882 96.3943 129 96.9735 129 97.5822C129 98.2105 128.882 98.7995 128.645 99.3493C128.408 99.8795 128.082 100.341 127.668 100.734C127.273 101.126 126.799 101.431 126.247 101.647C125.694 101.882 125.112 102 124.5 102C123.868 102 123.276 101.882 122.724 101.647C122.171 101.431 121.688 101.126 121.273 100.734C120.878 100.341 120.562 99.8795 120.326 99.3493C120.109 98.7995 120 98.2105 120 97.5822Z" fill="#5516AA"/>
<path d="M70 0.885773V87.5126L187 158.114V71.4988L70 0.885773Z" stroke="#D7C7ED"/>
<path d="M182.56 73.0601V79.54L75.6399 17.8201V11.3301L182.56 73.0601Z" fill="#040919"/>
<path d="M162.83 77.5801L176.3 85.36" stroke="white" stroke-linecap="round" stroke-linejoin="round"/>
<path d="M162.83 82.65L176.3 90.43" stroke="white" stroke-linecap="round" stroke-linejoin="round"/>
<path d="M167.52 90.4299L176.3 95.4999" stroke="white" stroke-linecap="round" stroke-linejoin="round"/>
<path d="M162.83 92.79L176.3 100.57" stroke="white" stroke-linecap="round" stroke-linejoin="round"/>
<path d="M167.52 100.57L176.3 105.64" stroke="white" stroke-linecap="round" stroke-linejoin="round"/>
<path d="M33.8825 95.3803L29.5919 118.751C29.3647 119.988 29.3647 122.007 29.5919 123.244L34.6312 150.334L45.0044 134.711L43.0526 102.153L33.8741 95.3803H33.8825Z" fill="#5516AA"/>
<path d="M0.500008 237.189L37.2645 222.256L40.9073 228.742L32.9487 235.708L52.7443 232.511L64.5561 232.074L20.9182 254.881L0.500008 237.189Z" fill="url(#paint0_linear_1_302)"/>
<path d="M47.949 222.163L47.461 231.039C48.2771 231.148 49.1941 231.392 49.8587 231.947C51.3815 233.193 52.105 231.846 52.6939 230.021C53.2828 228.195 54.1577 225.949 54.1577 225.949H54.1662C53.4847 225.175 54.6878 223.248 54.5952 222.163" fill="#D7C7ED"/>
<path d="M47.5704 234.269C47.5704 236.962 50.456 236.734 53.308 235.792L64.5561 232.074C66.7687 231.342 69.1664 228.826 65.5909 228.456L57.3462 227.598C56.0843 227.463 54.9738 226.849 54.183 225.949H54.1746C54.1746 225.949 53.2996 228.195 52.7107 230.021C52.1218 231.846 51.3983 233.193 49.8756 231.947C49.2025 231.401 48.2939 231.148 47.4778 231.039L47.5872 231.392V234.269H47.5704Z" fill="#040919"/>
<path d="M37.0626 216.703L36.6167 222.634C36.6756 226.025 40.7054 226.689 41.2439 224.796C41.7823 222.904 42.632 217.57 42.632 217.57" fill="#D7C7ED"/>
<path d="M36.6167 222.634L36.0783 226.471C35.6072 229.785 40.2932 230.223 41.4542 228.027L45.5344 220.27L42.632 217.561C42.632 217.561 41.7823 222.895 41.2438 224.788C40.7054 226.681 36.6756 226.016 36.6167 222.626V222.634Z" fill="#040919"/>
<path d="M54.5699 224.098L64.3962 163.517C65.2038 159.478 65.7759 152.807 65.6581 148.685L65.5656 145.471L65.2543 142.022L55.1672 141.601L48.6977 147.288L50.8261 168.001L49.1435 176.742L47.8984 223.955C51.2131 227.531 54.5615 224.098 54.5615 224.098H54.5699Z" fill="#040919"/>
<path d="M35.237 135.417C32.8393 145.084 32.2083 151.781 33.9162 158.048L38.863 176.161L36.3475 185.853L35.4137 216.207C37.5926 219.757 40.1838 219.168 42.6152 217.57L50.8682 174.748L52.2479 143.065L46.4093 136.578L35.237 135.417Z" fill="#040919"/>
<path d="M65.7339 112.442L67.1893 105.526L63.9924 99.5698C63.109 97.9209 61.1152 95.742 59.5504 94.7156L46.0224 85.8231L38.905 87.6908L32.8393 102.085L36.5241 124.708L35.237 135.409L51.0786 145.117C54.3091 147.103 61.3087 147.566 65.2543 142.022L65.7339 112.442Z" fill="#D7C7ED"/>
<path d="M52.534 92.0236L53.981 93.5295L48.2939 98.8801L43.8939 111.668C43.0105 114.217 40.4698 115.117 38.2067 113.645L35.3632 111.794L40.3773 94.11L52.534 92.032V92.0236Z" fill="#5516AA"/>
<path d="M37.0963 119.938L45.3494 130.858C46.8637 132.86 50.1195 134.147 52.5845 133.726" stroke="#5516AA" stroke-miterlimit="10"/>
<path d="M39.1574 126.87L44.3566 133.474" stroke="#5516AA" stroke-miterlimit="10"/>
<path d="M58.2379 116.623C58.2379 116.623 56.4207 120.67 58.036 122.647C59.6513 124.624 63.1595 127.837 62.0658 130.79C60.9722 133.743 64.5393 138.303 64.5393 138.303L65.2543 122.857L58.2463 116.623H58.2379Z" fill="#5516AA"/>
<path d="M49.0342 184.641L44.6174 164.366" stroke="#5516AA" stroke-miterlimit="10"/>
<path d="M49.0342 184.641L54.0567 194.005C54.0567 194.005 50.8514 195.561 49.5306 191.338" stroke="#5516AA" stroke-miterlimit="10"/>
<path d="M65.9779 103.288L73.1793 116.724L85.9081 104.542L88.5077 109.808L76.7632 127.787C74.761 130.849 70.361 130.513 67.9381 127.77L58.2296 116.631L65.9694 103.297L65.9779 103.288Z" fill="#D7C7ED"/>
<path d="M86.1773 113.375L76.7632 127.787C74.761 130.849 70.361 130.513 67.9381 127.77L58.2296 116.631" stroke="#5516AA" stroke-miterlimit="10"/>
<path d="M85.9165 104.542L90.4595 107.04L88.0366 110.481C88.0366 110.481 87.6916 106.83 84.1077 106.267L85.9165 104.542Z" fill="white"/>
<path d="M42.3207 87.9685L43.8182 85.4615C44.5922 84.1659 44.9539 82.4328 44.1715 81.1372L42.9853 79.1517L54.8055 79.1854L53.3584 90.4166L46.4851 91.0897L42.3122 87.9685H42.3207Z" fill="#5516AA"/>
<path d="M50.212 82.5926C45.0778 82.5926 40.9157 78.4305 40.9157 73.2963C40.9157 68.1621 45.0778 64 50.212 64C55.3462 64 59.5083 68.1621 59.5083 73.2963C59.5083 78.4305 55.3462 82.5926 50.212 82.5926Z" fill="#5516AA"/>
<path d="M51.7179 84.8221L56.4376 84.9314C58.2464 84.9735 59.6934 83.5265 59.6681 81.7177L59.5083 73.086L56.4544 75.2902L51.7179 84.8305V84.8221Z" fill="#5516AA"/>
<path d="M48.6893 64.1178C52.82 63.6215 56.1347 65.0853 58.2379 68.6019L56.6479 71.0164L56.7657 73.2879L55.6636 73.9694L55.8487 79.0003L52.004 78.8909L47.175 83.232L44.1715 81.1372L42.9853 79.1517H42.9937C42.0094 77.9403 41.3112 76.468 41.0335 74.8191C40.1922 69.7545 43.591 64.7404 48.6893 64.1262V64.1178Z" fill="#040919"/>
<path d="M53.88 76.1651L61.4938 73.9693L59.4494 72.2867" stroke="#040919" stroke-linecap="round" stroke-linejoin="round"/>
<path d="M59.5504 76.2997L61.3844 77.1999L61.4938 73.9693" stroke="#040919" stroke-linecap="round" stroke-linejoin="round"/>
<path d="M90.4595 107.041L92.0075 105.484L95.4063 103.642L96.5 101.37L95.4315 97.5003L95.7681 93.8575L94.7417 93.9248L93.0086 98.451C92.588 99.5446 91.2924 100.369 90.123 100.268L89.0629 100.184L89.492 97.3909L88.5077 96.7936L87.2542 99.612C86.4718 101.286 87.4392 103.07 85.9081 104.534L90.4511 107.032L90.4595 107.041Z" fill="#5516AA"/>
<path d="M53.3584 90.4081L44.222 92.5955L39.4687 90.4586L40.3857 87.6907L47.3432 89.1462L53.3584 90.4081Z" fill="white"/>
<path d="M55.8487 79.0002L56.0169 81.9868L56.4123 88.0946C56.5806 90.711 54.7129 93.6303 52.2732 94.5809L44.8025 97.475L39.0564 112.029L34.2527 111.811L30.9884 103.97C30.3995 102.548 30.4668 100.243 31.1399 98.8547L33.4871 94.0426C33.4871 94.0426 30.837 89.651 32.6626 86.269L41.7065 69.5356L55.8487 78.9918V79.0002Z" fill="#040919"/>
<path d="M73.1877 116.724C73.1877 116.724 74.8703 118.726 74.9965 121.208C75.1227 123.69 77.9411 122.411 77.7307 119.567C77.5204 116.724 77.5625 114.806 79.6657 112.45" stroke="#5516AA" stroke-miterlimit="10"/>
<path d="M48.0078 94.7829L44.4659 104.02C44.0705 105.064 42.8338 106.031 41.7317 106.182L39.7211 106.452" stroke="#040919" stroke-miterlimit="10"/>
<defs>
<linearGradient id="paint0_linear_1_302" x1="28.6686" y1="239.097" x2="21.0622" y2="248.165" gradientUnits="userSpaceOnUse">
<stop stop-color="#CAB4E9"/>
<stop offset="1" stop-color="#DACFEA" stop-opacity="0.23"/>
</linearGradient>
</defs>
</svg>
