<svg width="43" height="44" viewBox="0 0 43 44" fill="none" xmlns="http://www.w3.org/2000/svg">
<path d="M23 10.5V3.5C28.2 3.5 29.8333 8.16667 30 10.5H23Z" fill="#E9DCFA"/>
<path d="M22.5 2C22.2348 2 21.9804 2.10536 21.7929 2.29289C21.6054 2.48043 21.5 2.73478 21.5 3V11C21.5 11.2652 21.6054 11.5196 21.7929 11.7071C21.9804 11.8946 22.2348 12 22.5 12H30.5C30.7652 12 31.0196 11.8946 31.2071 11.7071C31.3946 11.5196 31.5 11.2652 31.5 11C31.5 8.61305 30.5518 6.32387 28.864 4.63604C27.1761 2.94821 24.8869 2 22.5 2ZM23.5 10V4.07C24.9962 4.28561 26.3824 4.97978 27.4513 6.04868C28.5202 7.11759 29.2144 8.50379 29.43 10H23.5Z" fill="#5516AA"/>
<path d="M30.3198 14.0599C30.1958 14.0155 30.0642 13.9961 29.9326 14.0028C29.801 14.0095 29.672 14.0421 29.553 14.0988C29.4341 14.1555 29.3275 14.2351 29.2395 14.3331C29.1514 14.4311 29.0835 14.5456 29.0398 14.6699C28.5892 15.9438 27.8232 17.0828 26.8133 17.9806C25.8034 18.8785 24.5826 19.5059 23.2647 19.8043C21.9468 20.1028 20.5747 20.0625 19.2766 19.6873C17.9784 19.3121 16.7965 18.6142 15.841 17.6587C14.8855 16.7032 14.1876 15.5213 13.8124 14.2231C13.4372 12.925 13.397 11.5529 13.6954 10.235C13.9938 8.91712 14.6212 7.69627 15.5191 6.6864C16.4169 5.67653 17.5559 4.91053 18.8298 4.45988C19.0805 4.37236 19.2861 4.18886 19.4014 3.94975C19.5167 3.71064 19.5324 3.43551 19.4448 3.18488C19.3573 2.93425 19.1738 2.72865 18.9347 2.61332C18.6956 2.49798 18.4205 2.48236 18.1698 2.56988C16.5769 3.13266 15.1525 4.08984 14.0296 5.3521C12.9066 6.61436 12.1218 8.14053 11.7484 9.78819C11.3749 11.4358 11.425 13.1513 11.8939 14.7743C12.3628 16.3974 13.2353 17.8752 14.4299 19.0698C15.6245 20.2644 17.1023 21.1369 18.7254 21.6058C20.3485 22.0748 22.0639 22.1248 23.7115 21.7514C25.3592 21.3779 26.8854 20.5931 28.1476 19.4702C29.4099 18.3472 30.3671 16.9228 30.9298 15.3299C31.0163 15.0805 31.0007 14.8071 30.8865 14.5692C30.7722 14.3313 30.5685 14.1482 30.3198 14.0599Z" fill="#5516AA"/>
<path d="M0.66 31.08H3.096C3.592 31.08 4.04 31.164 4.44 31.332C4.844 31.5 5.166 31.758 5.406 32.106C5.646 32.454 5.766 32.902 5.766 33.45C5.766 33.998 5.646 34.456 5.406 34.824C5.166 35.188 4.844 35.462 4.44 35.646C4.04 35.83 3.592 35.922 3.096 35.922H1.92V39H0.66V31.08ZM1.92 34.89H2.748C3.056 34.89 3.336 34.846 3.588 34.758C3.844 34.666 4.046 34.516 4.194 34.308C4.346 34.1 4.422 33.824 4.422 33.48C4.422 33.132 4.346 32.86 4.194 32.664C4.046 32.464 3.844 32.322 3.588 32.238C3.336 32.154 3.056 32.112 2.748 32.112H1.92V34.89ZM8.83453 39.144C8.31853 39.144 7.85853 39.032 7.45453 38.808C7.05453 38.58 6.74053 38.272 6.51253 37.884C6.28453 37.492 6.17053 37.048 6.17053 36.552C6.17053 36.056 6.28453 35.61 6.51253 35.214C6.74053 34.818 7.05453 34.506 7.45453 34.278C7.85853 34.046 8.31853 33.93 8.83453 33.93C9.35053 33.93 9.80653 34.046 10.2025 34.278C10.5985 34.506 10.9085 34.818 11.1325 35.214C11.3605 35.61 11.4745 36.056 11.4745 36.552C11.4745 37.048 11.3605 37.492 11.1325 37.884C10.9085 38.272 10.5985 38.58 10.2025 38.808C9.80653 39.032 9.35053 39.144 8.83453 39.144ZM8.83453 38.064C9.12253 38.064 9.37253 37.998 9.58453 37.866C9.79653 37.734 9.96053 37.554 10.0765 37.326C10.1925 37.098 10.2505 36.838 10.2505 36.546C10.2505 36.254 10.1925 35.994 10.0765 35.766C9.96053 35.534 9.79653 35.35 9.58453 35.214C9.37253 35.078 9.12253 35.01 8.83453 35.01C8.54653 35.01 8.29453 35.078 8.07853 35.214C7.86653 35.35 7.70053 35.534 7.58053 35.766C7.46453 35.994 7.40653 36.254 7.40653 36.546C7.40653 36.838 7.46453 37.098 7.58053 37.326C7.70053 37.554 7.86653 37.734 8.07853 37.866C8.29453 37.998 8.54653 38.064 8.83453 38.064ZM13.7768 39H12.4988V34.074H13.7768V34.896H13.7468C13.7748 34.796 13.8508 34.672 13.9748 34.524C14.1028 34.372 14.2788 34.236 14.5028 34.116C14.7268 33.992 14.9968 33.93 15.3128 33.93C15.5408 33.93 15.7448 33.962 15.9248 34.026C16.1048 34.09 16.2328 34.154 16.3088 34.218L15.7928 35.274C15.7408 35.21 15.6428 35.148 15.4988 35.088C15.3588 35.024 15.1848 34.992 14.9768 34.992C14.7168 34.992 14.4968 35.068 14.3168 35.22C14.1408 35.372 14.0068 35.554 13.9148 35.766C13.8228 35.978 13.7768 36.176 13.7768 36.36V39ZM16.6037 34.074H17.5277V32.052H18.7997V34.074H20.0177V35.154H18.7997V37.26C18.7997 37.524 18.8437 37.722 18.9317 37.854C19.0237 37.986 19.1537 38.052 19.3217 38.052C19.4617 38.052 19.5717 38.026 19.6517 37.974C19.7357 37.922 19.7857 37.886 19.8017 37.866L20.2757 38.796C20.2517 38.82 20.1817 38.86 20.0657 38.916C19.9497 38.972 19.7997 39.024 19.6157 39.072C19.4317 39.12 19.2217 39.144 18.9857 39.144C18.5697 39.144 18.2217 39.02 17.9417 38.772C17.6657 38.524 17.5277 38.136 17.5277 37.608V35.154H16.6037V34.074ZM20.6755 34.074H21.6235V32.706C21.6235 32.214 21.7155 31.814 21.8995 31.506C22.0835 31.194 22.3175 30.966 22.6015 30.822C22.8895 30.674 23.1855 30.6 23.4895 30.6C23.8615 30.6 24.1455 30.652 24.3415 30.756C24.5415 30.856 24.6635 30.926 24.7075 30.966L24.2035 31.926C24.1795 31.902 24.1195 31.86 24.0235 31.8C23.9275 31.736 23.7975 31.704 23.6335 31.704C23.5135 31.704 23.3975 31.732 23.2855 31.788C23.1775 31.844 23.0855 31.954 23.0095 32.118C22.9335 32.282 22.8955 32.522 22.8955 32.838V34.074H24.2455V35.154H22.8955V39H21.6235V35.154H20.6755V34.074ZM27.4791 39.144C26.9631 39.144 26.5031 39.032 26.0991 38.808C25.6991 38.58 25.3851 38.272 25.1571 37.884C24.9291 37.492 24.8151 37.048 24.8151 36.552C24.8151 36.056 24.9291 35.61 25.1571 35.214C25.3851 34.818 25.6991 34.506 26.0991 34.278C26.5031 34.046 26.9631 33.93 27.4791 33.93C27.9951 33.93 28.4511 34.046 28.8471 34.278C29.2431 34.506 29.5531 34.818 29.7771 35.214C30.0051 35.61 30.1191 36.056 30.1191 36.552C30.1191 37.048 30.0051 37.492 29.7771 37.884C29.5531 38.272 29.2431 38.58 28.8471 38.808C28.4511 39.032 27.9951 39.144 27.4791 39.144ZM27.4791 38.064C27.7671 38.064 28.0171 37.998 28.2291 37.866C28.4411 37.734 28.6051 37.554 28.7211 37.326C28.8371 37.098 28.8951 36.838 28.8951 36.546C28.8951 36.254 28.8371 35.994 28.7211 35.766C28.6051 35.534 28.4411 35.35 28.2291 35.214C28.0171 35.078 27.7671 35.01 27.4791 35.01C27.1911 35.01 26.9391 35.078 26.7231 35.214C26.5111 35.35 26.3451 35.534 26.2251 35.766C26.1091 35.994 26.0511 36.254 26.0511 36.546C26.0511 36.838 26.1091 37.098 26.2251 37.326C26.3451 37.554 26.5111 37.734 26.7231 37.866C26.9391 37.998 27.1911 38.064 27.4791 38.064ZM32.5114 39H31.2214V30.744H32.5114V39ZM34.0064 39V34.074H35.2844V39H34.0064ZM34.6604 32.598C34.4444 32.598 34.2584 32.52 34.1024 32.364C33.9504 32.208 33.8744 32.022 33.8744 31.806C33.8744 31.59 33.9504 31.404 34.1024 31.248C34.2584 31.088 34.4444 31.008 34.6604 31.008C34.8044 31.008 34.9364 31.046 35.0564 31.122C35.1804 31.194 35.2784 31.29 35.3504 31.41C35.4264 31.526 35.4644 31.658 35.4644 31.806C35.4644 32.022 35.3864 32.208 35.2304 32.364C35.0744 32.52 34.8844 32.598 34.6604 32.598ZM39.1275 39.144C38.6115 39.144 38.1515 39.032 37.7475 38.808C37.3475 38.58 37.0335 38.272 36.8055 37.884C36.5775 37.492 36.4635 37.048 36.4635 36.552C36.4635 36.056 36.5775 35.61 36.8055 35.214C37.0335 34.818 37.3475 34.506 37.7475 34.278C38.1515 34.046 38.6115 33.93 39.1275 33.93C39.6435 33.93 40.0995 34.046 40.4955 34.278C40.8915 34.506 41.2015 34.818 41.4255 35.214C41.6535 35.61 41.7675 36.056 41.7675 36.552C41.7675 37.048 41.6535 37.492 41.4255 37.884C41.2015 38.272 40.8915 38.58 40.4955 38.808C40.0995 39.032 39.6435 39.144 39.1275 39.144ZM39.1275 38.064C39.4155 38.064 39.6655 37.998 39.8775 37.866C40.0895 37.734 40.2535 37.554 40.3695 37.326C40.4855 37.098 40.5435 36.838 40.5435 36.546C40.5435 36.254 40.4855 35.994 40.3695 35.766C40.2535 35.534 40.0895 35.35 39.8775 35.214C39.6655 35.078 39.4155 35.01 39.1275 35.01C38.8395 35.01 38.5875 35.078 38.3715 35.214C38.1595 35.35 37.9935 35.534 37.8735 35.766C37.7575 35.994 37.6995 36.254 37.6995 36.546C37.6995 36.838 37.7575 37.098 37.8735 37.326C37.9935 37.554 38.1595 37.734 38.3715 37.866C38.5875 37.998 38.8395 38.064 39.1275 38.064Z" fill="#5516AA"/>
</svg>
