<svg width="32" height="44" viewBox="0 0 32 44" fill="none" xmlns="http://www.w3.org/2000/svg">
<g clip-path="url(#clip0_274_16)">
<path d="M20.5 16.5L22 19L19.5 20L16 21L12 20L10 18.5L10.5 17.5L13 16H17.5L20.5 16.5Z" fill="#F0F0F0"/>
<path d="M16 21C20.9706 21 25 16.9706 25 12C25 7.02944 20.9706 3 16 3C11.0294 3 7 7.02944 7 12C7 16.9706 11.0294 21 16 21Z" stroke="#898989" stroke-width="1.5" stroke-linecap="round" stroke-linejoin="round"/>
<path d="M16 13C17.6569 13 19 11.6569 19 10C19 8.34315 17.6569 7 16 7C14.3431 7 13 8.34315 13 10C13 11.6569 14.3431 13 16 13Z" fill="#F0F0F0" stroke="#898989" stroke-width="1.5" stroke-linecap="round" stroke-linejoin="round"/>
<path d="M10.168 18.849C10.4155 18.0252 10.922 17.3032 11.6122 16.79C12.3025 16.2768 13.1398 15.9997 14 16H18C18.8613 15.9997 19.6996 16.2774 20.3904 16.7918C21.0812 17.3062 21.5875 18.0298 21.834 18.855" stroke="#898989" stroke-width="1.5" stroke-linecap="round" stroke-linejoin="round"/>
</g>
<path d="M0.72 31.08H2.964C3.46 31.08 3.906 31.162 4.302 31.326C4.702 31.486 5.02 31.738 5.256 32.082C5.492 32.426 5.61 32.874 5.61 33.426C5.61 33.974 5.492 34.428 5.256 34.788C5.02 35.148 4.702 35.418 4.302 35.598C3.906 35.774 3.46 35.862 2.964 35.862H1.746V39H0.72V31.08ZM1.746 35.004H2.682C3.022 35.004 3.33 34.954 3.606 34.854C3.886 34.754 4.108 34.59 4.272 34.362C4.44 34.134 4.524 33.828 4.524 33.444C4.524 33.056 4.44 32.754 4.272 32.538C4.108 32.318 3.886 32.164 3.606 32.076C3.33 31.984 3.022 31.938 2.682 31.938H1.746V35.004ZM7.64428 39H6.60628V34.074H7.64428V34.926H7.61428C7.63428 34.822 7.70828 34.692 7.83628 34.536C7.96428 34.38 8.14028 34.24 8.36428 34.116C8.58828 33.992 8.85628 33.93 9.16828 33.93C9.39628 33.93 9.59628 33.962 9.76828 34.026C9.94428 34.086 10.0683 34.146 10.1403 34.206L9.71428 35.07C9.65828 35.014 9.56028 34.958 9.42028 34.902C9.28028 34.842 9.10628 34.812 8.89828 34.812C8.63428 34.812 8.40828 34.894 8.22028 35.058C8.03228 35.222 7.88828 35.42 7.78828 35.652C7.69228 35.88 7.64428 36.092 7.64428 36.288V39ZM12.9881 39.144C12.4801 39.144 12.0281 39.03 11.6321 38.802C11.2401 38.574 10.9321 38.266 10.7081 37.878C10.4841 37.486 10.3721 37.044 10.3721 36.552C10.3721 36.06 10.4841 35.616 10.7081 35.22C10.9321 34.824 11.2401 34.51 11.6321 34.278C12.0281 34.046 12.4801 33.93 12.9881 33.93C13.4921 33.93 13.9381 34.046 14.3261 34.278C14.7181 34.51 15.0241 34.824 15.2441 35.22C15.4641 35.616 15.5741 36.06 15.5741 36.552C15.5741 37.044 15.4641 37.486 15.2441 37.878C15.0241 38.266 14.7181 38.574 14.3261 38.802C13.9381 39.03 13.4921 39.144 12.9881 39.144ZM12.9881 38.25C13.3081 38.25 13.5861 38.176 13.8221 38.028C14.0621 37.88 14.2481 37.678 14.3801 37.422C14.5121 37.162 14.5781 36.87 14.5781 36.546C14.5781 36.222 14.5121 35.93 14.3801 35.67C14.2481 35.41 14.0621 35.204 13.8221 35.052C13.5861 34.9 13.3081 34.824 12.9881 34.824C12.6641 34.824 12.3821 34.9 12.1421 35.052C11.9021 35.204 11.7141 35.41 11.5781 35.67C11.4461 35.93 11.3801 36.222 11.3801 36.546C11.3801 36.87 11.4461 37.162 11.5781 37.422C11.7141 37.678 11.9021 37.88 12.1421 38.028C12.3821 38.176 12.6641 38.25 12.9881 38.25ZM16.2696 34.074H17.2776V32.676C17.2776 32.176 17.3636 31.774 17.5356 31.47C17.7116 31.166 17.9336 30.946 18.2016 30.81C18.4736 30.67 18.7516 30.6 19.0356 30.6C19.3796 30.6 19.6436 30.648 19.8276 30.744C20.0156 30.84 20.1276 30.904 20.1636 30.936L19.7436 31.734C19.7236 31.71 19.6616 31.666 19.5576 31.602C19.4536 31.538 19.3116 31.506 19.1316 31.506C18.9996 31.506 18.8716 31.538 18.7476 31.602C18.6236 31.666 18.5196 31.79 18.4356 31.974C18.3516 32.158 18.3096 32.432 18.3096 32.796V34.074H19.7136V34.968H18.3096V39H17.2776V34.968H16.2696V34.074ZM20.7696 39V34.074H21.8136V39H20.7696ZM21.3036 32.388C21.1156 32.388 20.9536 32.322 20.8176 32.19C20.6856 32.054 20.6196 31.892 20.6196 31.704C20.6196 31.516 20.6856 31.354 20.8176 31.218C20.9536 31.082 21.1156 31.014 21.3036 31.014C21.4276 31.014 21.5416 31.046 21.6456 31.11C21.7536 31.174 21.8396 31.258 21.9036 31.362C21.9676 31.462 21.9996 31.576 21.9996 31.704C21.9996 31.892 21.9316 32.054 21.7956 32.19C21.6596 32.322 21.4956 32.388 21.3036 32.388ZM24.4973 39H23.4473V30.744H24.4973V39ZM26.6551 36.75C26.6591 37.046 26.7231 37.316 26.8471 37.56C26.9711 37.804 27.1551 37.998 27.3991 38.142C27.6471 38.286 27.9511 38.358 28.3111 38.358C28.6151 38.358 28.8731 38.314 29.0851 38.226C29.3011 38.134 29.4771 38.026 29.6131 37.902C29.7491 37.774 29.8471 37.66 29.9071 37.56L30.4171 38.19C30.2851 38.382 30.1231 38.55 29.9311 38.694C29.7431 38.838 29.5131 38.948 29.2411 39.024C28.9691 39.104 28.6371 39.144 28.2451 39.144C27.7171 39.144 27.2591 39.032 26.8711 38.808C26.4871 38.58 26.1911 38.266 25.9831 37.866C25.7751 37.462 25.6711 37 25.6711 36.48C25.6711 36 25.7691 35.568 25.9651 35.184C26.1611 34.796 26.4451 34.49 26.8171 34.266C27.1931 34.042 27.6451 33.93 28.1731 33.93C28.6571 33.93 29.0771 34.032 29.4331 34.236C29.7931 34.436 30.0711 34.72 30.2671 35.088C30.4671 35.456 30.5671 35.896 30.5671 36.408C30.5671 36.44 30.5651 36.498 30.5611 36.582C30.5571 36.662 30.5531 36.718 30.5491 36.75H26.6551ZM29.5711 35.964C29.5671 35.8 29.5191 35.62 29.4271 35.424C29.3391 35.228 29.1951 35.06 28.9951 34.92C28.7951 34.78 28.5251 34.71 28.1851 34.71C27.8331 34.71 27.5491 34.778 27.3331 34.914C27.1211 35.05 26.9651 35.216 26.8651 35.412C26.7651 35.604 26.7071 35.788 26.6911 35.964H29.5711Z" fill="#898989"/>
<defs>
<clipPath id="clip0_274_16">
<rect width="24" height="24" fill="white" transform="translate(4)"/>
</clipPath>
</defs>
</svg>
